<svg width="48" height="47" viewBox="0 0 48 47" fill="none" xmlns="http://www.w3.org/2000/svg">
<path d="M20.2962 19.9547C19.1881 19.9547 18.3132 20.9149 18.3132 22.0865C18.3132 23.258 19.2075 24.2183 20.2962 24.2183C21.4043 24.2183 22.2792 23.258 22.2792 22.0865C22.2986 20.9149 21.4043 19.9547 20.2962 19.9547ZM27.3921 19.9547C26.284 19.9547 25.4091 20.9149 25.4091 22.0865C25.4091 23.258 26.3034 24.2183 27.3921 24.2183C28.5002 24.2183 29.3751 23.258 29.3751 22.0865C29.3751 20.9149 28.5002 19.9547 27.3921 19.9547Z" fill="white"/>
<path d="M36.8403 3.84113H10.7896C8.59275 3.84113 6.8042 5.60804 6.8042 7.79749V33.7635C6.8042 35.953 8.59275 37.7199 10.7896 37.7199H32.8354L31.8051 34.1668L34.2935 36.4523L36.6458 38.6033L40.8256 42.2524V7.79749C40.8256 5.60804 39.0371 3.84113 36.8403 3.84113ZM29.3361 28.9237C29.3361 28.9237 28.6362 28.0979 28.053 27.368C30.5998 26.6574 31.5718 25.0826 31.5718 25.0826C30.7747 25.6011 30.0165 25.966 29.3361 26.2157C28.3641 26.619 27.4309 26.8879 26.5172 27.0415C24.6509 27.3872 22.9401 27.2912 21.482 27.0223C20.3739 26.8111 19.4213 26.5038 18.6242 26.1965C18.1771 26.0236 17.6911 25.8124 17.205 25.5435C17.1467 25.5051 17.0884 25.4859 17.0301 25.4475C16.9912 25.4283 16.9717 25.4091 16.9523 25.3899C16.6024 25.1978 16.408 25.0634 16.408 25.0634C16.408 25.0634 17.3411 26.5998 19.8101 27.3296C19.2269 28.0594 18.5076 28.9237 18.5076 28.9237C14.2111 28.7893 12.5781 26.0044 12.5781 26.0044C12.5781 19.8202 15.3776 14.8075 15.3776 14.8075C18.1771 12.7333 20.8405 12.791 20.8405 12.791L21.0349 13.0214C17.5355 14.0201 15.9219 15.5374 15.9219 15.5374C15.9219 15.5374 16.3496 15.3069 17.0689 14.9804C19.1491 14.0777 20.8016 13.8281 21.482 13.7704C21.5987 13.7512 21.6959 13.732 21.8125 13.732C22.9984 13.5784 24.3398 13.54 25.7396 13.6936C27.5864 13.9049 29.5694 14.4426 31.5912 15.5374C31.5912 15.5374 30.0554 14.0969 26.7505 13.0982L27.0226 12.791C27.0226 12.791 29.686 12.7333 32.4855 14.8075C32.4855 14.8075 35.285 19.8202 35.285 26.0044C35.285 26.0044 33.6325 28.7893 29.3361 28.9237Z" fill="white"/>
</svg>
