<svg width="44" height="44" viewBox="0 0 44 44" fill="none" xmlns="http://www.w3.org/2000/svg">
<path d="M22.0021 4C11.5034 3.99578 3 12.4504 3 22.8857C3 31.1376 8.31941 38.1521 15.7275 40.7282C16.7252 40.9774 16.5723 40.2721 16.5723 39.7907V36.5178C10.8114 37.1893 10.5779 33.3969 10.1916 32.7635C9.41046 31.4374 7.56374 31.0996 8.11563 30.4661C9.42744 29.7946 10.7647 30.635 12.3143 32.9113C13.435 34.5625 15.6214 34.2838 16.7294 34.0093C16.9714 33.0168 17.4893 32.13 18.2025 31.4416C12.2336 30.3774 9.74584 26.754 9.74584 22.4465C9.74584 20.356 10.4378 18.4345 11.7963 16.8846C10.9303 14.3297 11.877 12.1421 12.0044 11.8169C14.4709 11.5973 17.0351 13.5737 17.2346 13.73C18.6356 13.3541 20.2361 13.1557 22.0276 13.1557C23.8276 13.1557 25.4324 13.3626 26.8461 13.7427C27.3258 13.3795 29.7032 11.6818 31.9956 11.8887C32.1188 12.2139 33.0442 14.3508 32.2291 16.872C33.6046 18.4261 34.3051 20.3645 34.3051 22.4591C34.3051 26.7751 31.8004 30.4028 25.8144 31.4501C26.3271 31.9517 26.7342 32.5498 27.012 33.2097C27.2897 33.8695 27.4324 34.5778 27.4319 35.2931V40.0441C27.4659 40.4241 27.4319 40.8 28.0687 40.8C35.5872 38.2788 41 31.2136 41 22.8899C41 12.4504 32.4923 4 22.0021 4V4Z" fill="white"/>
</svg>
