<svg width="44" height="44" viewBox="0 0 44 44" fill="none" xmlns="http://www.w3.org/2000/svg">
<path d="M40.4465 12.723C40.2273 11.9068 39.7976 11.1624 39.2004 10.5645C38.6031 9.96646 37.8593 9.53582 37.0434 9.31563C34.0398 8.50781 22 8.50781 22 8.50781C22 8.50781 9.96016 8.50781 6.95664 9.31133C6.14032 9.53081 5.39612 9.96121 4.79877 10.5593C4.20143 11.1574 3.77197 11.9022 3.55352 12.7188C2.75 15.7266 2.75 22 2.75 22C2.75 22 2.75 28.2734 3.55352 31.277C3.99609 32.9355 5.30234 34.2418 6.95664 34.6844C9.96016 35.4922 22 35.4922 22 35.4922C22 35.4922 34.0398 35.4922 37.0434 34.6844C38.702 34.2418 40.0039 32.9355 40.4465 31.277C41.25 28.2734 41.25 22 41.25 22C41.25 22 41.25 15.7266 40.4465 12.723ZM18.1758 27.7578V16.2422L28.1445 21.957L18.1758 27.7578Z" fill="white"/>
</svg>
